<svg id="undraw_Astronaut_re_8c33" xmlns="http://www.w3.org/2000/svg" width="725.54" height="545.897" viewBox="0 0 725.54 545.897">
  <path id="Path_1" data-name="Path 1" d="M803.375,525.768c85.456,0,152.4-15.486,152.4-35.256,0-11.853-23.719-22.428-65.076-29.014a1.137,1.137,0,0,0-.358,2.246c38.957,6.2,63.159,16.461,63.159,26.767,0,17.878-68.747,32.981-150.122,32.981s-150.122-15.1-150.122-32.981c0-10.35,24.356-20.632,63.563-26.832a1.137,1.137,0,0,0-.355-2.247c-41.615,6.581-65.482,17.18-65.482,29.079C650.978,510.281,717.919,525.768,803.375,525.768Z" transform="translate(-650.978 -175.485)" fill="#ccc"/>
  <path id="Path_2" data-name="Path 2" d="M869.93,523.884A87.552,87.552,0,0,1,718.5,523.5a1378.4,1378.4,0,0,0,151.43.382Z" transform="translate(-641.929 -166.962)" fill="#e6e6e6"/>
  <path id="Path_3" data-name="Path 3" d="M711.336,515.593a87.568,87.568,0,1,1,168.156.909,650.8,650.8,0,0,1-168.156-.909Z" transform="translate(-643.147 -183.367)" fill="#e6e6e6"/>
  <path id="Path_4" data-name="Path 4" d="M382.477,220.235a10.236,10.236,0,1,1,14.216,9.433v53.118h-7.961V229.668A10.238,10.238,0,0,1,382.477,220.235Z" transform="translate(207.208 -210.002)" fill="#ccc"/>
  <path id="Path_5" data-name="Path 5" d="M567.226,451.3h0a22.77,22.77,0,0,0,22.729-23.623c-.456-12.059-10.9-21.869-23.274-21.869H504.2l-51.42-22.763a5.694,5.694,0,0,0-7.5,2.9l-13.812,31.2a5.693,5.693,0,0,0,2.9,7.5l50.645,22.42a40.26,40.26,0,0,0,15.924,3.465Z" transform="translate(-34.978 -186.312)" fill="#ccc"/>
  <path id="Path_6" data-name="Path 6" d="M315.393,568.206a5.214,5.214,0,0,0,.883-.075l33.631-5.74h0a5.117,5.117,0,0,0,4.161-6.029L327.745,422.1a22.177,22.177,0,0,0-43.72,7.475l26.369,134.492A5.083,5.083,0,0,0,315.393,568.206Z" transform="translate(368.324 -183.414)" fill="#ccc"/>
  <circle id="Ellipse_3" data-name="Ellipse 3" cx="20.471" cy="20.471" r="20.471" transform="translate(681.235 373.029)" fill="#e6e6e6"/>
  <circle id="Ellipse_4" data-name="Ellipse 4" cx="76.198" cy="76.198" r="76.198" transform="translate(526.197 65.594)" fill="#e6e6e6"/>
  <circle id="Ellipse_5" data-name="Ellipse 5" cx="76.198" cy="76.198" r="76.198" transform="translate(526.197 65.594)" fill="#e6e6e6"/>
  <path id="Path_21" data-name="Path 21" d="M58,0a58,58,0,1,0,58,58A58,58,0,0,0,58,0Z" transform="translate(544.393 83.79)" fill="#54596c"/>
  <path id="Path_7" data-name="Path 7" d="M381.524,360.76c3.76-.1,8.439-.235,12.044-2.868a9.249,9.249,0,0,0,3.639-6.906,6.222,6.222,0,0,0-2.116-5.11c-1.883-1.591-4.632-1.964-7.6-1.093l3.07-22.434-2.253-.309L384.7,348.413l1.882-.864c2.182-1,5.177-1.51,7.038.063a4,4,0,0,1,1.311,3.293,6.991,6.991,0,0,1-2.708,5.149c-2.805,2.049-6.535,2.313-10.765,2.432Z" transform="translate(214.09 -194.62)" fill="#2f2e41"/>
  <path id="Path_20" data-name="Path 20" d="M12.25,0H0V2.275H12.25Z" transform="translate(615.801 129.663)" fill="#2f2e41"/>
  <rect id="Rectangle_2" data-name="Rectangle 2" width="12.25" height="2.275" transform="translate(577.133 129.663)" fill="#2f2e41"/>
  <path id="Path_8" data-name="Path 8" d="M387.959,342.02a58.014,58.014,0,0,0-49.2-57.338,57.995,57.995,0,1,1,.909,114.515A58.006,58.006,0,0,0,387.959,342.02Z" transform="translate(253.472 -199.86)" opacity="0.2"/>
  <path id="Path_9" data-name="Path 9" d="M340.566,568.819h116a18.786,18.786,0,0,0,18.765-18.765V419.265A18.787,18.787,0,0,0,456.57,400.5H438.942v5.118A13.093,13.093,0,0,1,425.863,418.7h-54.59a13.094,13.094,0,0,1-13.079-13.079V400.5H340.566A18.787,18.787,0,0,0,321.8,419.265V550.053A18.787,18.787,0,0,0,340.566,568.819Z" transform="translate(203.828 -183.848)" fill="#e6e6e6"/>
  <path id="Path_10" data-name="Path 10" d="M361.727,679.34h45.5V626.81l59.424-91.115-38.1-24.851-59.165,90.719a41.158,41.158,0,0,0-6.686,21.8Z" transform="translate(167.102 -168.7)" fill="#e6e6e6"/>
  <path id="Path_11" data-name="Path 11" d="M344.478,705.563h44.354V572.5H344.478Z" transform="translate(264.54 -160.235)" fill="#e6e6e6"/>
  <path id="Path_12" data-name="Path 12" d="M347.468,590.227h97.807a9.678,9.678,0,0,0,9.667-9.667V544.167a9.678,9.678,0,0,0-9.667-9.667H347.468a9.678,9.678,0,0,0-9.667,9.667V580.56a9.678,9.678,0,0,0,9.667,9.667Z" transform="translate(206.024 -165.452)" fill="#e6e6e6"/>
  <path id="Path_13" data-name="Path 13" d="M432.106,681.756H484.99V646.5H432.106a17.628,17.628,0,1,0,0,35.256Z" transform="translate(88.772 -150.075)" fill="#ccc"/>
  <path id="Path_14" data-name="Path 14" d="M362.106,693.756H414.99V658.5H362.106a17.628,17.628,0,0,0,0,35.256Z" transform="translate(238.382 -148.428)" fill="#ccc"/>
  <path id="Path_15" data-name="Path 15" d="M401.459,452.461h42.08a3.98,3.98,0,0,0,0-7.961h-42.08a3.98,3.98,0,0,0,0,7.961Z" transform="translate(145.577 -177.808)" fill="#fff"/>
  <path id="Path_16" data-name="Path 16" d="M401.459,464.961h42.08a3.98,3.98,0,1,0,0-7.961h-42.08a3.981,3.981,0,0,0,0,7.961Z" transform="translate(145.577 -176.092)" fill="#fff"/>
  <path id="Path_17" data-name="Path 17" d="M282.159,690.275H531.225a1.137,1.137,0,1,0,0-2.275H282.159a1.137,1.137,0,1,0,0,2.275Z" transform="translate(193.177 -144.378)" fill="none"/>
  <circle id="Ellipse_7" data-name="Ellipse 7" cx="20.471" cy="20.471" r="20.471" transform="translate(373.03 188.788)" fill="#e6e6e6"/>
  <path id="Path_18" data-name="Path 18" d="M579.3,497.8a6.831,6.831,0,0,0,6.824-6.824V245.324a6.824,6.824,0,0,0-13.647,0V490.978A6.831,6.831,0,0,0,579.3,497.8Z" transform="translate(-192.055 -206.089)" fill="#3f3d56"/>
  <path id="Path_19" data-name="Path 19" d="M579.718,243.359c5.994-5.243,26.579-21.563,53.134-24.543,19.868-2.218,43.08,3.025,66.019,25.976,18.4,18.4,35.756,27.124,51.587,25.942,16.161-1.217,26.909-12.7,31.879-19.448a2.779,2.779,0,0,1,3.15-1,2.809,2.809,0,0,1,1.968,2.707V337.9a2.854,2.854,0,0,1-1.627,2.57c-6.2,2.934-28.523,12.681-51,12.681-13.181,0-26.43-3.355-36.484-13.42-.1-.1-.193-.193-.3-.284-17.81-17.332-57.069-13.773-85.718-8.109-11.85,2.343-21.882,5.038-27.83,6.767a5.11,5.11,0,0,1-6.528-4.913V247.214a5.132,5.132,0,0,1,1.74-3.855Z" transform="translate(-399.639 -208.855)" fill="#54596c"/>
  <circle id="Ellipse_8" data-name="Ellipse 8" cx="10.236" cy="10.236" r="10.236" transform="translate(123.964 255.888)" fill="#fff"/>
  <circle id="Ellipse_9" data-name="Ellipse 9" cx="10.236" cy="10.236" r="10.236" transform="translate(142.16 368.48)" fill="#fff"/>
  <circle id="Ellipse_10" data-name="Ellipse 10" cx="17.059" cy="17.059" r="17.059" transform="translate(168.318 284.32)" fill="#fff"/>
</svg>
